<svg width="25" height="23" viewBox="0 0 25 23" fill="none" xmlns="http://www.w3.org/2000/svg">
<path d="M5.74317 17.688L8.59885 22.0091C9.21509 22.9425 10.6013 23.2881 11.6975 22.7345C12.7822 22.1869 13.155 20.9761 12.5275 20.0278L10.8263 17.4534L12.2996 16.7104C12.5707 16.5734 12.6637 16.2706 12.5071 16.0337L11.7697 14.918C11.8577 14.9031 12.4358 14.804 22.6312 13.0569C23.8915 12.9971 24.6467 11.7929 24.01 10.8302L22.1254 7.97878L23.3298 6.38528C23.4481 6.22855 23.4552 6.02711 23.3477 5.86457L22.2136 4.14859C22.1062 3.98605 21.9022 3.89084 21.6884 3.90187L19.5068 4.01623L17.4146 0.850532C17.1116 0.391931 16.5687 0.114256 15.9627 0.107676C15.9553 0.107483 15.9483 0.107483 15.941 0.107483C15.3553 0.107483 14.8237 0.362132 14.5087 0.792675L7.10102 9.03627L2.28522 11.4651C0.391102 12.42 -0.265004 14.5428 0.832346 16.2019C1.83489 17.7189 3.94852 18.3157 5.74317 17.688V17.688ZM11.5456 20.5233C11.8588 20.9967 11.6734 21.6023 11.13 21.8765C10.5849 22.1519 9.89069 21.9827 9.58102 21.5139L6.74572 17.2234L8.71005 16.2326C11.9915 21.1983 11.4929 20.4438 11.5456 20.5233V20.5233ZM10.2593 16.5952L9.69222 15.7373L10.6744 15.2419L11.2414 16.0999L10.2593 16.5952ZM21.4067 4.90905L22.1904 6.09484L21.4915 7.01939L20.1407 4.97542L21.4067 4.90905ZM15.4572 1.33584C15.6094 1.11834 15.8508 1.09589 15.9487 1.09822C16.0455 1.09918 16.2867 1.1255 16.4323 1.34571L23.0279 11.3256C23.2427 11.6505 22.9816 12.059 22.5507 12.0683C22.4734 12.0698 22.4378 12.082 22.2397 12.1143L15.2629 1.55778C15.4093 1.39331 15.4282 1.37744 15.4572 1.33584V1.33584ZM14.5082 2.39758L21.0633 12.3159L11.1703 14.011L8.16226 9.45965L14.5082 2.39758ZM1.81451 15.7065C1.56554 15.3301 1.43396 14.9029 1.43396 14.4706C1.43396 13.5871 1.97754 12.7643 2.85228 12.3231L7.27202 10.094L10.1073 14.3839L5.68758 16.6132C4.3335 17.2959 2.59621 16.8892 1.81451 15.7065V15.7065Z" fill="#4F82E3"/>
</svg>
