<svg width="31" height="26" viewBox="0 0 31 26" fill="none" xmlns="http://www.w3.org/2000/svg">
<path fill-rule="evenodd" clip-rule="evenodd" d="M2.21414 5.0625H0.942188C0.421806 5.0625 1.51708e-07 4.68476 1.51708e-07 4.21875V0.84375C1.51708e-07 0.377789 0.421806 0 0.942188 0H13.1906C13.711 0 14.1328 0.377736 14.1328 0.84375V1.6875H13.1906V0.84375H0.942188V4.21875H2.41012C2.53507 4.21875 2.65485 4.26326 2.74318 4.34236L4.26764 5.70712L5.79116 4.34236C5.87949 4.26326 5.99926 4.21875 6.12422 4.21875H7.5375V5.0625H6.31925L4.6007 6.60192C4.51237 6.68102 4.3926 6.72553 4.26764 6.72553C4.14268 6.72553 4.02291 6.68102 3.93458 6.60192L2.21414 5.0625ZM11.4947 19.4412C11.5969 19.4804 11.6803 19.5506 11.7302 19.6395L12.2013 20.4833C12.2331 20.542 12.2493 20.6066 12.2484 20.6719V25.7344H11.3063V20.7714L10.9619 20.1542L8.1256 19.0542L6.59532 20.4246V21.9375H5.65313V20.4246L4.12272 19.0541L1.28656 20.1542L0.942188 20.7714V25.7344H1.51708e-07V20.6719C-5.8417e-05 20.6064 0.0168421 20.5419 0.0494653 20.4833L0.520559 19.6395C0.570495 19.5506 0.653938 19.4804 0.756106 19.4412L3.87993 18.2292L4.13208 17.5293C3.31803 16.9393 2.82656 15.9611 2.82656 14.7656V13.9219V11.3906C2.82656 11.2787 2.87626 11.1714 2.96459 11.0923C3.8446 10.4257 4.97269 10.0803 6.12422 10.125C7.27575 10.0803 8.4039 10.4257 9.28385 11.0923C9.37218 11.1714 9.42188 11.2787 9.42188 11.3906V13.9219V14.7656C9.42188 15.9619 8.92976 16.9404 8.11483 17.5303L8.36663 18.2292L11.4947 19.4412ZM8.47969 11.5868C7.78883 11.1599 6.96306 10.9433 6.12422 10.9687C5.28532 10.9434 4.45955 11.1602 3.76875 11.5872V13.4391C4.0043 13.3835 4.23985 13.2781 4.23985 13.0781C4.23985 12.8451 4.45078 12.6562 4.71094 12.6562H7.5375C7.79766 12.6562 8.0086 12.8451 8.0086 13.0781C8.0086 13.2781 8.24414 13.3836 8.47969 13.4391V11.5868ZM3.76875 14.3045V14.7656C3.76875 15.9334 4.38588 17.2969 6.12422 17.2969C7.86256 17.2969 8.47969 15.9334 8.47969 14.7656V14.3045C7.91326 14.2559 7.41319 13.9528 7.15215 13.5H5.09629C4.83525 13.9528 4.33518 14.2559 3.76875 14.3045ZM7.28046 17.9578C6.92667 18.0768 6.53896 18.1406 6.12422 18.1406C5.70907 18.1406 5.32095 18.0767 4.9668 17.9574L4.78761 18.4565L6.12422 19.6535L7.4603 18.457L7.28046 17.9578ZM2.35547 23.625H3.29766V25.7344H2.35547V23.625ZM9.89299 23.625H8.95081V25.7344H9.89299V23.625ZM29.3962 19.4412C29.4984 19.4804 29.5818 19.5506 29.6317 19.6395L30.1028 20.4833C30.1346 20.542 30.1508 20.6066 30.15 20.6719V25.7344H29.2078V20.7714L28.8634 20.1542L26.0271 19.0542L24.4968 20.4246V21.9375H23.5546V20.4246L22.0242 19.0541L19.1876 20.1542L18.8437 20.7714V25.7344H17.9015V20.6719C17.9007 20.6066 17.9168 20.542 17.9486 20.4833L18.4197 19.6395C18.4697 19.5506 18.5531 19.4804 18.6553 19.4412L21.78 18.2292L22.0325 17.5284C21.2191 16.9384 20.7281 15.9606 20.7281 14.7656V13.9219V11.3906C20.7281 11.2787 20.7778 11.1714 20.8661 11.0923C21.7461 10.4257 22.8742 10.0803 24.0257 10.125C25.1773 10.0803 26.3054 10.4257 27.1854 11.0923C27.2737 11.1714 27.3234 11.2787 27.3234 11.3906V13.9219V14.7656C27.3234 15.9619 26.8313 16.9404 26.0163 17.5303L26.2681 18.2292L29.3962 19.4412ZM26.3812 11.5868C25.6903 11.1599 24.8646 10.9433 24.0257 10.9687C23.1868 10.9434 22.3611 11.1602 21.6703 11.5872V13.4391C21.9058 13.3835 22.1414 13.2781 22.1414 13.0781C22.1414 12.8451 22.3523 12.6562 22.6125 12.6562H25.439C25.6992 12.6562 25.9101 12.8451 25.9101 13.0781C25.9101 13.2781 26.1457 13.3836 26.3812 13.4391V11.5868ZM21.6703 14.3045V14.7656C21.6703 15.9334 22.2874 17.2969 24.0257 17.2969C25.7641 17.2969 26.3812 15.9334 26.3812 14.7656V14.3045C25.8148 14.2559 25.3147 13.9528 25.0537 13.5H22.9978C22.7368 13.9528 22.2367 14.2559 21.6703 14.3045ZM25.182 17.9578C24.8282 18.0768 24.4405 18.1406 24.0257 18.1406C23.6103 18.1406 23.2219 18.0766 22.8676 17.9572L22.6889 18.4563L24.0257 19.6535L25.3618 18.457L25.182 17.9578ZM21.1992 23.625H20.257V25.7344H21.1992V23.625ZM26.8524 23.625H27.7945V25.7344H26.8524V23.625ZM17.0768 19.0539L18.0235 19.4219L18.3985 18.6478L17.3197 18.2293L17.0674 17.529C17.8812 16.939 18.3726 15.961 18.3726 14.7656V13.9219V11.3906C18.3726 11.2787 18.3229 11.1714 18.2346 11.0923C17.3546 10.4257 16.2265 10.0803 15.0749 10.125C13.9234 10.0803 12.7953 10.4257 11.9153 11.0923C11.827 11.1714 11.7773 11.2787 11.7773 11.3906V13.9219V14.7656C11.7773 15.9604 12.2682 16.9381 13.0813 17.5282L12.8283 18.2305L11.6284 18.6945L12.0053 19.4687L13.0735 19.0542L14.6038 20.4246V21.9375H15.546V20.4246L17.0768 19.0539ZM15.0749 10.9687C15.9138 10.9433 16.7395 11.1599 17.4304 11.5868V13.4391C17.1949 13.3836 16.9593 13.2781 16.9593 13.0781C16.9593 12.8451 16.7484 12.6562 16.4882 12.6562H13.6617C13.4015 12.6562 13.1906 12.8451 13.1906 13.0781C13.1906 13.2781 12.955 13.3835 12.7195 13.4391V11.5872C13.4103 11.1602 14.236 10.9434 15.0749 10.9687ZM12.7195 14.7656V14.3045C13.2859 14.2559 13.786 13.9528 14.047 13.5H16.1029C16.3639 13.9528 16.864 14.2559 17.4304 14.3045V14.7656C17.4304 15.9334 16.8133 17.2969 15.0749 17.2969C13.3366 17.2969 12.7195 15.9334 12.7195 14.7656ZM15.0749 18.1406C15.4905 18.1406 15.8789 18.0765 16.2333 17.9571L16.4128 18.4554L15.0749 19.6535L13.7381 18.4563L13.9166 17.9571C14.271 18.0766 14.6594 18.1406 15.0749 18.1406ZM15.075 2.53125H9.42186C8.90148 2.53125 8.47968 2.90899 8.47968 3.375V6.75C8.47968 7.21601 8.90148 7.59375 9.42186 7.59375H12.9956L14.7419 9.15764C14.8303 9.23674 14.95 9.28125 15.075 9.28125C15.1999 9.28125 15.3197 9.23674 15.4081 9.15764L17.1351 7.61105L21.6703 7.59375C22.1907 7.59375 22.6125 7.21601 22.6125 6.75L16.9358 6.76814C16.812 6.76893 16.6936 6.81333 16.606 6.89175L15.075 8.26284L13.5237 6.87361C13.4353 6.79451 13.3156 6.75 13.1906 6.75H9.42186V3.375H15.075V2.53125ZM16.9594 0.84375H29.2078C29.7282 0.84375 30.15 1.22154 30.15 1.6875V5.0625C30.15 5.52851 29.7282 5.90625 29.2078 5.90625H27.9896L26.2432 7.47014C26.1549 7.54924 26.0351 7.59375 25.9102 7.59375C25.7852 7.59375 25.6654 7.54924 25.5771 7.47014L23.8308 5.90625H16.9594C16.439 5.90625 16.0172 5.52851 16.0172 5.0625V1.6875C16.0172 1.22149 16.439 0.84375 16.9594 0.84375ZM27.7946 5.0625H29.2078V1.6875H16.9594V5.0625H24.0258C24.1508 5.0625 24.2705 5.10701 24.3589 5.18611L25.9102 6.57534L27.4615 5.18611C27.5498 5.10701 27.6696 5.0625 27.7946 5.0625ZM25.9102 2.95312H18.3727V3.79688H25.9102V2.95312ZM12.7195 4.64062H14.6039V5.48438H12.7195V4.64062ZM2.35547 2.10938H5.18203V2.95312H2.35547V2.10938Z" fill="#4F82E3"/>
</svg>
