<svg width="31" height="25" viewBox="0 0 31 25" fill="none" xmlns="http://www.w3.org/2000/svg">
<path fill-rule="evenodd" clip-rule="evenodd" d="M25.6486 19.2591C26.4057 19.4437 27.0306 19.8891 27.3642 20.482C28.9873 20.7689 30.1482 21.9571 30.15 23.3333V24.5833C30.15 24.6938 30.0971 24.7999 30.0028 24.878C29.9086 24.9562 29.7807 25 29.6475 25H0.50248C0.224947 25 0 24.8135 0 24.5833V23.125C0.00247324 21.4369 1.6195 20.0547 3.65445 20.0015C3.98104 19.2039 4.91763 18.6911 5.93042 18.7551C6.55486 17.8281 7.82793 17.3397 9.08428 17.5452C9.65065 16.6441 10.6156 15.9597 11.7769 15.6354C11.3027 14.689 11.0575 13.6747 11.055 12.65V12.4083C11.0518 11.7723 11.67 11.2542 12.4369 11.25H13.5676V2.57842C12.6359 2.13252 12.0613 1.30869 12.0601 0.41665C12.0601 0.186523 12.285 0 12.5625 0H17.5875C17.8651 0 18.09 0.186523 18.09 0.41665C18.0888 1.30869 17.5142 2.13252 16.5825 2.57842V11.2499H17.7131C18.4801 11.2541 19.0983 11.7722 19.095 12.4082V12.6499C19.0855 14.2922 18.4647 15.8921 17.3173 17.2308C17.3257 17.2415 17.3349 17.2516 17.3441 17.2618C17.3545 17.2732 17.3649 17.2846 17.3741 17.2969C18.1416 17.0152 19.0163 17.012 19.7869 17.288C20.5575 17.564 21.1542 18.0942 21.4331 18.7508C22.1904 18.771 22.9044 19.0483 23.408 19.5178C24.0754 19.1688 24.8916 19.0746 25.6486 19.2591ZM15.075 2.08335C15.9916 2.08335 16.7922 1.56924 17.0214 0.83335H13.1286C13.3578 1.56924 14.1584 2.08335 15.075 2.08335ZM14.5725 2.87905V11.2486H15.5775V2.87905C15.4116 2.90327 15.2435 2.91582 15.075 2.9167C14.9065 2.91582 14.7385 2.90322 14.5725 2.87905ZM15.5775 13.3333V12.0833H14.5725V13.3333C14.5725 13.5634 14.7975 13.75 15.075 13.75C15.3525 13.75 15.5775 13.5635 15.5775 13.3333ZM12.1661 12.1801C12.0952 12.2413 12.0569 12.3235 12.06 12.4083H12.0599V12.6499C12.0607 13.5895 12.2899 14.5192 12.7337 15.3837L12.7689 15.4479C14.203 15.2948 15.6411 15.7058 16.6568 16.5591C17.5848 15.4001 18.083 14.0411 18.09 12.65V12.4083C18.0931 12.3235 18.0548 12.2413 17.9839 12.1801C17.913 12.119 17.8154 12.0841 17.7131 12.0833H16.5825V13.3333C16.5825 14.0237 15.9076 14.5833 15.075 14.5833C14.2424 14.5833 13.5675 14.0237 13.5675 13.3333V12.0833H12.4369C12.3346 12.0841 12.237 12.119 12.1661 12.1801ZM1.00502 24.1667H29.145H29.145V23.3333C29.1439 22.283 28.2001 21.3976 26.9432 21.2678C26.7522 21.2483 26.5914 21.1401 26.529 20.9891C26.339 20.5167 25.8694 20.1585 25.2858 20.0409C24.7022 19.9232 24.0867 20.0627 23.6563 20.4101C23.545 20.4991 23.3905 20.5406 23.2374 20.5227C23.0844 20.5047 22.9497 20.4294 22.8724 20.3184C22.5646 19.864 21.9848 19.5829 21.3563 19.5833C21.2973 19.5848 21.2384 19.5898 21.1801 19.5981L21.1244 19.6046C20.8601 19.6334 20.6144 19.4866 20.5638 19.2696C20.4375 18.7179 19.9841 18.2563 19.3581 18.0422C18.732 17.8281 18.018 17.8905 17.4594 18.208C17.3381 18.277 17.1863 18.2984 17.0442 18.2666C16.9021 18.2348 16.7841 18.1529 16.7211 18.0426C16.0846 16.9208 14.7077 16.2177 13.2131 16.2511C11.7185 16.2846 10.3894 17.0482 9.82672 18.1968C9.72585 18.402 9.44908 18.5059 9.19664 18.4333C8.98694 18.3696 8.76582 18.3358 8.54252 18.3333C7.72411 18.3323 6.98732 18.7446 6.68247 19.3744C6.58795 19.5679 6.33521 19.6734 6.09142 19.6212C5.74552 19.5405 5.37436 19.5897 5.07609 19.7559C4.77783 19.9221 4.58257 20.1884 4.54193 20.4844C4.50554 20.704 4.26852 20.8617 4.00212 20.8435C3.92504 20.8382 3.84754 20.8333 3.76875 20.8333C2.24311 20.8348 1.00673 21.86 1.00502 23.125V24.1667ZM15.128 18.1786C15.0441 18.2645 14.9226 18.3192 14.7901 18.3309C14.6576 18.3424 14.5249 18.3099 14.4214 18.2404C14.1093 18.0297 13.7187 17.9153 13.3163 17.9167C12.5709 17.9174 11.9067 18.3067 11.6574 18.8891C11.5975 19.0294 11.4519 19.1326 11.2754 19.1598C11.0988 19.187 10.9182 19.134 10.8016 19.0208C10.6849 18.9077 10.6499 18.7515 10.7098 18.6111C11.0091 17.9097 11.7004 17.3724 12.5638 17.1699C13.4272 16.9674 14.3554 17.125 15.0534 17.5926C15.157 17.6621 15.2231 17.7629 15.2371 17.8728C15.251 17.9827 15.2118 18.0927 15.128 18.1786ZM21.105 20.4167C20.8404 20.4167 20.5804 20.4744 20.3511 20.5839C20.1955 20.6583 20.0995 20.7959 20.0995 20.9449C20.0994 21.0938 20.1952 21.2314 20.3508 21.3059C20.5064 21.3804 20.698 21.3803 20.8535 21.3058C21.0091 21.2314 21.2006 21.2315 21.3561 21.3059C21.5115 21.3803 21.6074 21.5179 21.6075 21.6667C21.6075 21.8969 21.8325 22.0834 22.11 22.0834C22.3875 22.0834 22.6125 21.8969 22.6125 21.6667C22.6117 20.9767 21.9372 20.4175 21.105 20.4167ZM25.8785 22.2508C26.1077 22.1411 26.3676 22.0833 26.6323 22.0834C27.4645 22.0841 28.1388 22.6433 28.1398 23.3334C28.1398 23.5635 27.9148 23.7501 27.6373 23.7501C27.3598 23.7501 27.1348 23.5635 27.1348 23.3334C27.1346 23.1846 27.0389 23.0471 26.8835 22.9727C26.7281 22.8983 26.5366 22.8981 26.3811 22.9723C26.2256 23.0468 26.034 23.0469 25.8785 22.9725C25.723 22.8981 25.6272 22.7605 25.6272 22.6116C25.6272 22.4628 25.723 22.3252 25.8785 22.2508ZM7.13454 20.4458C6.55621 20.3486 5.95763 20.4982 5.54042 20.8441C5.12315 21.1901 4.94278 21.6865 5.06002 22.166C5.09559 22.3119 5.22237 22.4309 5.3925 22.4783C5.56268 22.5256 5.75035 22.4942 5.88496 22.3957C6.01952 22.2972 6.08053 22.1466 6.0449 22.0007C6.03489 21.9593 6.02988 21.9172 6.02994 21.875C6.03041 21.53 6.3676 21.2504 6.78369 21.25C6.83463 21.25 6.88539 21.2542 6.93533 21.2624C7.20732 21.308 7.47237 21.1622 7.52737 20.9367C7.58237 20.7111 7.40654 20.4914 7.13454 20.4458ZM13.9028 20.1304C14.1986 20.0439 14.51 19.9998 14.8237 20C15.7206 20.0004 16.5617 20.3616 17.0796 20.9688C17.5976 21.576 17.7283 22.3538 17.4301 23.0552C17.371 23.1962 17.2254 23.3002 17.0485 23.3278C16.8715 23.3554 16.6903 23.3024 16.5734 23.1889C16.4566 23.0754 16.4218 22.9187 16.4825 22.7781C16.7074 22.2482 16.5457 21.6583 16.0666 21.261C15.5875 20.8638 14.876 20.7296 14.2369 20.9162C13.9757 20.9915 13.6902 20.8775 13.5982 20.6612C13.5062 20.4449 13.6424 20.2077 13.9028 20.1304Z" fill="#4F82E3"/>
</svg>
