<svg width="34" height="25" viewBox="0 0 34 25" fill="none" xmlns="http://www.w3.org/2000/svg">
<path fill-rule="evenodd" clip-rule="evenodd" d="M9.46585 0H23.9824C24.2907 0 24.5408 0.196495 24.5408 0.43858V3.94736H32.9417C33.2498 3.94736 33.5 4.14385 33.5 4.38594V23.6842C33.5 24.4096 32.7485 25 31.825 25H27.3584C26.435 25 25.6834 24.4096 25.6834 23.6842C25.6834 22.9588 26.435 22.3684 27.3584 22.3684C27.455 22.3684 27.5511 22.375 27.6454 22.3882C28.0307 21.843 28.7637 21.4912 29.5917 21.4912C30.4198 21.4912 31.1528 21.843 31.5381 22.3882C31.6324 22.375 31.7285 22.3684 31.8251 22.3684C32.0221 22.3684 32.2081 22.4 32.3834 22.4491V4.82452H24.5408V23.2456C24.5408 23.3183 24.5182 23.3869 24.4783 23.4472C24.5343 23.5156 24.5668 23.5969 24.5668 23.6842C24.5668 23.9263 24.3167 24.1228 24.0085 24.1228H8.93352V24.5614C8.93352 24.8034 8.68338 24.9999 8.37521 24.9999C8.06703 24.9999 7.8169 24.8034 7.8169 24.5614V23.6841C7.8169 23.4421 8.06703 23.2456 8.37521 23.2456H8.90754V4.82457H1.11662V13.1579C1.11662 13.4 0.866484 13.5965 0.55831 13.5965C0.250137 13.5965 0 13.4 0 13.1579V4.38594C0 4.14385 0.250137 3.94736 0.55831 3.94736H8.90754V0.43858C8.90754 0.196495 9.15768 0 9.46585 0ZM10.0242 23.2456H13.4V17.9824H11.725C11.4168 17.9824 11.1667 17.7859 11.1667 17.5438C11.1667 17.3017 11.4168 17.1052 11.725 17.1052H21.7749C22.0831 17.1052 22.3332 17.3017 22.3332 17.5438C22.3332 17.7859 22.0831 17.9824 21.7749 17.9824H20.0999L20.0454 23.2456H23.4241V0.877159H10.0242V23.2456ZM18.4251 4.82453H20.6585C20.9666 4.82453 21.2168 4.62804 21.2168 4.38595V1.75437C21.2168 1.51229 20.9666 1.3158 20.6585 1.3158H18.4251C18.117 1.3158 17.8668 1.51229 17.8668 1.75437V4.38595C17.8668 4.62804 18.117 4.82453 18.4251 4.82453ZM18.9835 2.19295H20.1001V3.94732H18.9835V2.19295ZM12.8417 10.0876C12.5335 10.0876 12.2834 9.89111 12.2834 9.64903H12.2834V7.01745C12.2834 6.77536 12.5336 6.57887 12.8418 6.57887H15.0751C15.3832 6.57887 15.6334 6.77536 15.6334 7.01745V9.64903C15.6334 9.89111 15.3832 10.0876 15.0751 10.0876H12.8417ZM14.5168 7.45608H13.4001V9.21045H14.5168V7.45608ZM18.9287 23.2456L18.9833 17.9824H14.5166V23.2456H18.9287ZM27.3581 20.6139C27.0499 20.6139 26.7998 20.4174 26.7998 20.1754V17.5438C26.7998 17.3017 27.0499 17.1052 27.3581 17.1052H29.5914C29.8996 17.1052 30.1497 17.3017 30.1497 17.5438V20.1754C30.1497 20.4174 29.8996 20.6139 29.5914 20.6139H27.3581ZM29.0332 17.9824H27.9165V19.7368H29.0332V17.9824ZM2.79168 14.4736C0.0317988 14.4736 0 20.1184 0 20.1754C0 21.2346 0.960898 22.1201 2.23331 22.3241V24.5614C2.23331 24.8035 2.48344 25 2.79162 25C3.09979 25 3.34993 24.8035 3.34993 24.5614V22.3241C4.62234 22.1201 5.58324 21.2346 5.58324 20.1754C5.5833 20.1184 5.5515 14.4736 2.79168 14.4736ZM2.79168 21.4912C1.86821 21.4912 1.11669 20.9008 1.11669 20.1754C1.11669 17.9903 1.86376 15.3508 2.79168 15.3508C3.71961 15.3508 4.46668 17.9903 4.46668 20.1754C4.46668 20.9008 3.71516 21.4912 2.79168 21.4912ZM3.90844 11.8421H6.14181C6.44999 11.8421 6.70012 12.0386 6.70006 12.2807V14.9123C6.70006 15.1544 6.44992 15.3509 6.14175 15.3509C5.83357 15.3509 5.58344 15.1544 5.58344 14.9123V12.7193H4.46675V13.1579C4.46675 13.3999 4.21661 13.5964 3.90844 13.5964C3.60027 13.5964 3.35013 13.3999 3.35013 13.1579V12.2806C3.35013 12.0386 3.60027 11.8421 3.90844 11.8421ZM27.3581 10.0877H29.5914C29.8996 10.0877 30.1497 9.89117 30.1497 9.64908V7.0175C30.1497 6.77542 29.8996 6.57892 29.5914 6.57892H27.3581C27.0499 6.57892 26.7998 6.77542 26.7998 7.0175V9.64908C26.7998 9.89117 27.0499 10.0877 27.3581 10.0877ZM27.9165 7.45608H29.0332V9.21045H27.9165V7.45608ZM3.90844 6.57887H6.14181C6.44999 6.57887 6.70012 6.77536 6.70006 7.01745V9.64903C6.70006 9.89111 6.44992 10.0876 6.14175 10.0876H3.90844C3.60027 10.0876 3.35013 9.89111 3.35013 9.64903V7.01745C3.35013 6.77536 3.60027 6.57887 3.90844 6.57887ZM4.46682 9.21045H5.58344H5.5835V7.45608H4.46682V9.21045ZM17.8668 9.64903C17.8668 9.89111 18.117 10.0876 18.4251 10.0876H20.6585C20.9666 10.0876 21.2168 9.89111 21.2168 9.64903V7.01745C21.2168 6.77536 20.9666 6.57887 20.6585 6.57887H18.4251C18.117 6.57887 17.8668 6.77536 17.8668 7.01745V9.64903ZM18.9835 7.45608H20.1001V9.21045H18.9835V7.45608ZM27.3583 24.1228H31.825C32.1326 24.1228 32.3833 23.9259 32.3834 23.6842C32.3834 23.3583 31.8859 23.1329 31.5224 23.3171C31.3694 23.3943 31.178 23.4084 31.0099 23.3549C30.8413 23.3013 30.7167 23.1864 30.676 23.0474C30.5581 22.6478 30.112 22.3684 29.5917 22.3684C29.0713 22.3684 28.6252 22.6478 28.5074 23.0474C28.4666 23.1864 28.3421 23.3013 28.1735 23.3549C28.0049 23.4084 27.8139 23.3943 27.6609 23.3171C27.5671 23.2697 27.4655 23.2456 27.3583 23.2456C27.0507 23.2456 26.8 23.4425 26.8 23.6842C26.8 23.9259 27.0507 24.1228 27.3583 24.1228ZM18.4251 15.3508C18.117 15.3508 17.8668 15.1543 17.8668 14.9122V12.2806C17.8668 12.0386 18.117 11.8421 18.4251 11.8421H20.6585C20.9666 11.8421 21.2168 12.0386 21.2168 12.2806V14.9122C21.2168 15.1543 20.9666 15.3508 20.6585 15.3508H18.4251ZM20.1001 12.7193H18.9835V14.4736H20.1001V12.7193ZM12.842 4.82453H15.0753C15.3835 4.82453 15.6336 4.62804 15.6336 4.38595V1.75437C15.6336 1.51229 15.3835 1.3158 15.0753 1.3158H12.842C12.5339 1.3158 12.2837 1.51229 12.2837 1.75437V4.38595C12.2837 4.62804 12.5338 4.82453 12.842 4.82453ZM13.4003 2.19295H14.517V3.94732H13.4003V2.19295ZM16.1917 20.1755C16.1917 20.0614 16.2531 19.9474 16.3536 19.8641C16.5658 19.7017 16.9343 19.7017 17.1465 19.8641C17.247 19.9474 17.3084 20.0614 17.3084 20.1755C17.3084 20.2895 17.247 20.4036 17.1465 20.4869C17.0403 20.5658 16.8952 20.6141 16.75 20.6141C16.6048 20.6141 16.4597 20.5658 16.3536 20.4869C16.2531 20.4035 16.1917 20.2895 16.1917 20.1755ZM12.2834 14.9122C12.2834 15.1543 12.5335 15.3508 12.8417 15.3508H15.0751C15.3832 15.3508 15.6334 15.1543 15.6334 14.9122V12.2806C15.6334 12.0386 15.3832 11.8421 15.0751 11.8421H12.8418C12.5336 11.8421 12.2834 12.0386 12.2834 12.2806V14.9122H12.2834ZM13.4001 12.7193H14.5168V14.4736H13.4001V12.7193ZM26.7998 14.9122C26.7998 15.1543 27.0499 15.3508 27.3581 15.3508H29.5914C29.8996 15.3508 30.1497 15.1543 30.1497 14.9122V12.2806C30.1497 12.0386 29.8996 11.8421 29.5914 11.8421H27.3581C27.0499 11.8421 26.7998 12.0386 26.7998 12.2806V14.9122ZM27.9165 12.7193H29.0332V14.4736H27.9165V12.7193Z" fill="#4F82E3"/>
</svg>
