<svg width="18" height="24" viewBox="0 0 18 24" fill="none" xmlns="http://www.w3.org/2000/svg">
<path d="M17.2552 0.352323C17.2144 0.20162 17.0973 0.0798853 16.9428 0.0274322C16.7881 -0.0249741 16.6162 -0.00139596 16.4837 0.090479C15.9893 0.433369 13.5024 2.19713 13.0974 3.25098C12.8566 3.87868 12.9113 4.56385 13.2346 5.14426C12.628 5.9686 11.9997 7.10682 11.4467 8.21893V0.46876C11.4467 0.20987 11.2251 1.02921e-05 10.9519 1.02921e-05H6.9937C6.72044 1.02921e-05 6.49893 0.20987 6.49893 0.46876V9.65626H6.41011L5.56503 6.54146C5.56464 6.53991 5.56419 6.53837 5.56375 6.53682L4.79536 3.82041C4.79531 3.82032 4.79531 3.82023 4.79526 3.82013C4.79081 3.80452 4.78542 3.78915 4.77928 3.77401C4.7774 3.76937 4.77512 3.76491 4.7731 3.76032C4.76845 3.74977 4.7636 3.73937 4.7581 3.72915C4.75543 3.72418 4.75251 3.7194 4.74964 3.71452C4.74405 3.70491 4.73816 3.69545 4.73183 3.68621C4.72861 3.68157 4.7253 3.67702 4.72194 3.67248C4.71516 3.66334 4.70803 3.65448 4.70056 3.64576C4.69848 3.64337 4.6968 3.64074 4.69467 3.6384L1.75867 0.360901C1.63577 0.223698 1.44083 0.165291 1.25702 0.210526C1.07321 0.25576 0.932938 0.396713 0.896077 0.573244L0.00894308 4.82105C0.00829987 4.8242 0.00815144 4.82738 0.00755771 4.83048C0.00528174 4.84271 0.00340153 4.85495 0.00216459 4.86723C0.00162034 4.87243 0.0012743 4.87763 0.000927952 4.88284C0.000185787 4.89455 -0.000111344 4.90618 3.70886e-05 4.91785C8.65662e-05 4.92329 0.000136204 4.92873 0.00043307 4.93416C0.0010268 4.94612 0.00226375 4.95798 0.00384704 4.96984C0.00449025 4.97471 0.00488582 4.97954 0.00567746 4.98437C0.00839873 5.00091 0.0118623 5.01727 0.0164143 5.03345L0.783911 7.74713L1.29878 9.67679C0.998446 9.7253 0.721619 9.85983 0.501691 10.0682C0.221301 10.3339 0.0668318 10.687 0.0668318 11.0625C0.0668318 11.6735 0.480514 12.1946 1.05638 12.3881V21.6562C1.05638 22.9486 2.16617 24 3.53027 24H13.4258C14.7899 24 15.8997 22.9486 15.8997 21.6562V12.3889C16.1059 12.3199 16.2951 12.2077 16.4544 12.0568C16.7348 11.7911 16.8892 11.438 16.8892 11.0625C16.8892 10.3776 16.3695 9.80574 15.6842 9.68157C16.0069 8.43919 16.2344 7.20455 16.3184 6.23584C16.9789 5.99382 17.4999 5.49699 17.747 4.85396C18.1529 3.79806 17.4085 0.918807 17.2552 0.352323ZM13.8929 5.89477C14.0975 6.04726 14.3273 6.16909 14.5761 6.25487C14.8139 6.33685 15.061 6.38335 15.3096 6.39413C15.2104 7.32873 14.9831 8.4923 14.6708 9.65626H11.8424C12.598 8.03419 13.2959 6.75432 13.8929 5.89477ZM7.48848 0.93751H10.4571V2.01563H9.46758C9.19437 2.01563 8.97281 2.22549 8.97281 2.48438C8.97281 2.74327 9.19437 2.95313 9.46758 2.95313H10.4571V3.89063H9.46758C9.19437 3.89063 8.97281 4.10049 8.97281 4.35938C8.97281 4.61827 9.19437 4.82813 9.46758 4.82813H10.4571V5.76563H9.46758C9.19437 5.76563 8.97281 5.97549 8.97281 6.23438C8.97281 6.49327 9.19437 6.70313 9.46758 6.70313H10.4571V7.64063H9.46758C9.19437 7.64063 8.97281 7.85049 8.97281 8.10938C8.97281 8.36827 9.19437 8.57813 9.46758 8.57813H10.4571V9.65626H7.48848V0.93751ZM1.66773 1.70828L3.69765 3.97431C3.39252 4.33951 2.97354 4.60145 2.4899 4.72416C2.00814 4.84646 1.50915 4.81871 1.05366 4.6487L1.66773 1.70828ZM1.22129 5.6716C1.44048 5.7151 1.66372 5.73737 1.8882 5.73737C2.17423 5.73737 2.46224 5.70174 2.74595 5.62974C3.2525 5.50121 3.70878 5.26515 4.08847 4.94316L4.6073 6.77724L5.3884 9.65626H2.31391L1.74234 7.51402C1.7418 7.51187 1.7412 7.50971 1.74056 7.5076L1.22129 5.6716ZM14.9101 21.6562C14.9101 22.4317 14.2443 23.0625 13.4258 23.0625H3.53027C2.71181 23.0625 2.04594 22.4317 2.04594 21.6562V12.4688H14.9101V21.6562ZM15.8997 11.0625C15.8997 11.1876 15.8482 11.3053 15.7547 11.3938C15.6611 11.4825 15.5369 11.5313 15.4049 11.5313H1.55116C1.27834 11.5313 1.05638 11.321 1.05638 11.0625C1.05638 10.9374 1.10789 10.8197 1.2014 10.7312C1.29497 10.6426 1.41915 10.5938 1.55116 10.5938H6.0232C6.02419 10.5938 6.02513 10.5938 6.02607 10.5938C6.02671 10.5938 6.02735 10.5938 6.028 10.5938H11.0858C11.0866 10.5938 11.0874 10.5938 11.0882 10.5938C11.0888 10.5938 11.0893 10.5938 11.0899 10.5938H15.0516C15.0522 10.5938 15.0528 10.5938 15.0534 10.5938C15.0544 10.5938 15.0553 10.5938 15.0563 10.5938H15.405C15.6777 10.5938 15.8997 10.804 15.8997 11.0625ZM16.8171 4.53324C16.6425 4.98755 16.2403 5.32116 15.74 5.42579C15.4662 5.48363 15.1808 5.46568 14.9146 5.37395C14.6387 5.27879 14.4013 5.11051 14.228 4.88743C14.228 4.88734 14.2279 4.88724 14.2278 4.88715C13.9321 4.50685 13.8571 4.01495 14.0272 3.57156C14.2126 3.08912 15.4195 2.0604 16.47 1.27792C16.7589 2.52188 17.0022 4.0517 16.8171 4.53324Z" fill="#4F82E3"/>
</svg>
